<svg width="16" height="18" viewBox="0 0 16 18" fill="none" xmlns="http://www.w3.org/2000/svg">
<path d="M1.5 16.125H5.25V9.875H10.75V16.125H14.5V6.375L8 1.5L1.5 6.375V16.125ZM1.5 17.625C1.08333 17.625 0.729167 17.4792 0.4375 17.1875C0.145833 16.8958 0 16.5417 0 16.125V6.375C0 6.14167 0.0541666 5.91667 0.1625 5.7C0.270833 5.48333 0.416667 5.30833 0.6 5.175L7.1 0.3C7.23333 0.2 7.375 0.125 7.525 0.075C7.675 0.025 7.83333 0 8 0C8.16667 0 8.325 0.025 8.475 0.075C8.625 0.125 8.76667 0.2 8.9 0.3L15.4 5.175C15.5833 5.30833 15.7292 5.48333 15.8375 5.7C15.9458 5.91667 16 6.14167 16 6.375V16.125C16 16.5417 15.8542 16.8958 15.5625 17.1875C15.2708 17.4792 14.9167 17.625 14.5 17.625H9.25V11.375H6.75V17.625H1.5Z" fill="white"/>
</svg>
